<?xml version="1.0" encoding="utf-8"?>
<!-- Generator: Adobe Illustrator 16.0.3, SVG Export Plug-In . SVG Version: 6.00 Build 0)  -->
<!DOCTYPE svg PUBLIC "-//W3C//DTD SVG 1.1//EN" "http://www.w3.org/Graphics/SVG/1.1/DTD/svg11.dtd">
<svg version="1.1" id="Layer_1" xmlns="http://www.w3.org/2000/svg" xmlns:xlink="http://www.w3.org/1999/xlink" x="0px" y="0px"
	 width="792px" height="612px" viewBox="0 0 792 612" enable-background="new 0 0 792 612" xml:space="preserve">
<g>
	<defs>
		<rect id="SVGID_1_" width="792" height="612"/>
	</defs>
	<clipPath id="SVGID_2_">
		<use xlink:href="#SVGID_1_"  overflow="visible"/>
	</clipPath>
	<path clip-path="url(#SVGID_2_)" fill="#BCB3A4" d="M590.563,286.431h-0.267c-1.28,0-2.557,0.079-3.803,0.254l-0.175,0.015
		c-0.156,0.032-0.299,0.048-0.439,0.079l-0.223,0.032l-0.565,0.078v0.016c-13.394,2.492-23.047,14.07-23.047,27.777
		c0,15.016,11.736,27.415,26.784,28.236c0.314,0.015,0.631,0.015,0.945,0.015c0.175,0.016,0.348,0.016,0.522,0.016
		c0.691,0,1.372-0.016,2.019-0.08c14.715-1.024,26.247-13.406,26.247-28.187C618.562,299.256,606.006,286.574,590.563,286.431z
		 M611.579,320.957c-0.035,0.237-0.073,0.419-0.113,0.567c-2.155,10.282-9.021,19.899-19.271,20.562
		c-0.405,0.03-0.811,0.046-1.219,0.046h-0.886l-1.185-0.096c-10.499-1.182-17.874-9.354-19.937-20.691
		c-0.002-0.011-0.004-0.021-0.006-0.032c-0.003-0.016-0.006-0.031-0.009-0.046c-0.018-0.095-0.036-0.193-0.054-0.31
		c-0.677-4.537-3.539-6.238-3.539-6.238c2.61-0.803,3.539-6.422,3.539-6.422l0.014,0.03c1.764-10.595,7.952-18.636,17.043-20.806
		c0.047,0,0.093-0.017,0.141-0.032c0.015,0,0.015,0,0.031-0.016l0.427-0.063c1.23-0.174,2.477-0.252,3.739-0.252h0.267
		c1.37,0.013,2.716,0.131,4.03,0.345c9.681,2.03,15.555,11.575,17.154,21.603c0.367,1.583,1.377,4.999,3.371,5.612
		c0,0-2.607,1.56-3.431,5.654c-0.031,0.178-0.064,0.354-0.099,0.532C611.586,320.923,611.582,320.939,611.579,320.957z"/>
	<path clip-path="url(#SVGID_2_)" fill="#808285" d="M538.972,315.471c1.137,0,2.051,0.915,2.051,2.051
		c0,1.119-0.914,2.034-2.051,2.034c-1.12,0-2.033-0.915-2.033-2.034C536.938,316.386,537.852,315.471,538.972,315.471"/>
	<path clip-path="url(#SVGID_2_)" fill="#808285" d="M411.537,287.22c15.049,0.142,27.209,12.399,27.209,27.462
		c0,14.513-11.262,26.406-25.521,27.399v-0.048c12.952-0.836,20.727-14.479,20.727-27.352c0-13.675-7.682-27.336-22.414-27.336
		V287.22z"/>
	<path clip-path="url(#SVGID_2_)" fill="#808285" d="M409.785,341.985l-0.016,0.144c-14.479-0.789-25.963-12.777-25.963-27.447
		c0-13.645,9.955-24.968,22.999-27.098c-12.098,2.854-18.234,14.116-18.234,27.098C388.571,328.815,396.096,340.44,409.785,341.985"
		/>
	<rect x="326.627" y="288.134" clip-path="url(#SVGID_2_)" fill="#808285" width="5.049" height="53.047"/>
	<polygon clip-path="url(#SVGID_2_)" fill="#808285" points="272.335,287.473 295.758,341.182 290.397,341.182 269.687,293.404 
		269.559,293.34 	"/>
	<path clip-path="url(#SVGID_2_)" fill="#808285" d="M223.437,325.598l-0.078,0.03c-0.741-2.46-2.225-4.778-4.37-6.608
		c-5.648-4.795-13.929-5.158-19.953-9.416c-2.351-1.657-3.834-3.613-4.59-5.68c-0.364-2.002-0.221-3.895-0.283-5.741h0.093
		c0.126,3.943,0.364,6.31,4.78,9.449c6.024,4.258,14.305,4.621,19.953,9.416C221.45,319.131,223.327,322.68,223.437,325.598"/>
	<path clip-path="url(#SVGID_2_)" fill="#808285" d="M223.359,325.628c0.268,0.915,0.442,1.847,0.503,2.793
		c-0.377-2.713-2.586-5.49-4.873-7.43c-5.648-4.795-14.511-4.433-19.953-9.416c-3.029-2.761-4.165-5.285-4.59-7.651
		c0.756,2.067,2.239,4.022,4.59,5.68c6.024,4.257,14.305,4.621,19.953,9.416C221.134,320.85,222.618,323.168,223.359,325.628"/>
	<path clip-path="url(#SVGID_2_)" fill="#808285" d="M332.459,340.392v-53.045h-6.625v54.624h5.048h1.577h30.759v-1.578H332.459z
		 M327.412,288.924h3.47v51.469h-3.47V288.924z"/>
	<path clip-path="url(#SVGID_2_)" fill="#808285" d="M411.533,286.431h-0.27c-1.277,0-2.555,0.079-3.801,0.253l-0.174,0.015
		c-0.158,0.033-0.299,0.048-0.441,0.079l-0.222,0.033l-0.566,0.078v0.015c-13.393,2.492-23.045,14.071-23.045,27.778
		c0,15.016,11.736,27.415,26.784,28.236c0.315,0.015,0.63,0.015,0.946,0.015c0.174,0.016,0.346,0.016,0.52,0.016
		c0.693,0,1.373-0.016,2.021-0.079c14.715-1.025,26.247-13.407,26.247-28.188C439.531,299.255,426.975,286.573,411.533,286.431
		 M384.591,314.682c0-8.754,4.163-16.578,10.774-21.451c-4.843,5.063-7.588,12.539-7.588,21.451c0,9.417,3.155,17.178,8.596,22.146
		C389.244,332.018,384.591,323.878,384.591,314.682 M413.141,341.292c-0.692,0.063-1.389,0.079-2.098,0.079l0.017-0.079
		l-1.184-0.095c-12.462-1.403-20.522-11.813-20.522-26.516c0-13.661,6.736-23.723,17.573-26.31c0.048,0,0.094-0.016,0.143-0.032
		c0.015,0,0.015,0,0.029-0.016l0.428-0.063c1.229-0.174,2.477-0.252,3.737-0.252h0.27c14.575,0.141,26.42,12.098,26.42,26.673
		C437.953,328.641,427.069,340.33,413.141,341.292"/>
	<path clip-path="url(#SVGID_2_)" fill="#808285" d="M411.946,342.869h-0.788l-0.131-1.577h0.919c0.407,0,0.812-0.015,1.22-0.046
		c12.52-0.809,19.997-14.141,19.997-26.564c0-13.191-7.643-26.76-21.841-26.76h-0.787l0.214-1.364h0.789
		c15.231,0,23.202,14.148,23.202,28.124c0,13.15-8.028,27.271-21.465,28.139C412.839,342.854,412.394,342.869,411.946,342.869"/>
	<path clip-path="url(#SVGID_2_)" fill="#808285" d="M272.962,286.953h-1.246l-2.808,5.93l-0.253,0.111l0.095,0.22l-23.03,48.678
		h1.752l8.453-17.872h26.186l7.775,17.95h7.083L272.962,286.953z M272.298,289.38l14.418,33.062h-3.581l-12.65-29.196
		L272.298,289.38z M256.669,322.442l12.917-27.304l11.831,27.304H256.669z M283.815,324.02h3.312v-0.662l7.428,17.035h-3.642
		L283.815,324.02z"/>
	<polygon clip-path="url(#SVGID_2_)" fill="#808285" points="511.037,334.561 511.037,286.953 509.46,286.953 509.46,332.503 
		474.861,287.347 474.236,287.04 469.14,287.04 469.076,286.958 468.834,287.04 467.659,287.04 467.659,287.435 467.659,288.923 
		467.659,342.159 469.236,342.159 469.236,290.066 509.151,342.027 510.146,342.027 510.248,342.159 510.248,342.027 
		511.037,342.027 511.037,334.956 511.228,334.811 	"/>
	<path clip-path="url(#SVGID_2_)" fill="#808285" d="M223.631,327.663c-0.079-1.482-0.268-2.776-0.552-3.959
		c-0.52-2.965-1.593-5.71-3.991-7.745c-3.122-2.649-7.02-4.007-10.789-5.299c-3.202-1.104-6.499-2.24-9.228-4.165
		c-3.659-2.602-5.457-6.198-4.779-9.653v-0.016l0.046-0.141h-0.015l0.033-0.142c0.803-2.129,2.366-4.212,4.464-5.821
		c2.318-1.783,5.298-2.966,8.721-2.966c5.758,0,12.305,3.06,13.977,9.906l0.174,0.773l1.529-0.379l-0.174-0.757
		c-0.805-3.327-2.775-6.104-5.488-8.06c-2.73-1.94-6.2-3.06-10.018-3.06c-6.372,0-12.334,3.975-14.59,9.59l-0.063-0.015
		l-0.064,0.379c-0.093,0.189-0.157,0.377-0.22,0.584c-0.283,0.867-0.457,1.734-0.535,2.586l-0.016,0.157l-0.08,0.616
		c-0.031,0.283-0.047,0.566-0.031,0.867c0,0.078-0.016,0.158-0.016,0.236v0.08c-0.268,3.721,1.341,8.722,5.647,11.783
		c2.903,2.05,6.326,3.233,9.622,4.368c3.801,1.31,7.381,2.54,10.285,5.017c3.406,2.887,4.967,6.563,4.194,9.826l-0.142,0.569
		c-0.851,2.477-2.57,4.558-5.03,6.009c-4.891,2.919-12.083,3.171-17.493,0.646c-4.165-1.938-6.83-5.33-7.509-9.526l-0.127-0.773
		l-1.545,0.253l0.127,0.773c0.756,4.731,3.739,8.533,8.39,10.71c2.715,1.277,5.791,1.909,8.85,1.909
		c3.612-0.017,7.194-0.883,10.111-2.635c2.776-1.641,4.732-4.007,5.694-6.797h0.016l0.079-0.316
		c0.283-0.867,0.457-1.767,0.536-2.714c0.047-0.63,0.062-1.277,0.032-1.909h0.015L223.631,327.663z"/>
</g>
</svg>
